<svg width="256" height="256" viewBox="0 0 256 256" fill="none" xmlns="http://www.w3.org/2000/svg">
<g filter="url(#filter0_dn_1_9)">
<rect x="25" y="25" width="206" height="206" rx="50" fill="#CEA635"/>
</g>
<path d="M94.6427 186C93.2827 186 92.6027 185.377 92.6027 184.13C92.6027 182.997 93.2261 182.317 94.4727 182.09L96.8527 181.75C99.2327 181.41 100.763 180.73 101.443 179.71C102.236 178.69 102.633 176.99 102.633 174.61V77.2C102.633 75.16 102.293 73.8 101.613 73.12C101.046 72.3267 99.9694 71.8167 98.3827 71.59L94.8127 71.08C93.5661 70.8533 92.9427 70.1733 92.9427 69.04C92.9427 67.9067 93.5661 67.2267 94.8127 67C97.9861 66.32 100.649 65.5267 102.803 64.62C104.956 63.7133 106.769 62.8067 108.243 61.9C110.056 60.7667 111.416 60.2 112.323 60.2C113.569 60.2 114.193 61.1067 114.193 62.92V134.15C114.193 135.283 114.646 136.02 115.553 136.36C116.573 136.587 117.536 136.19 118.443 135.17L138.333 113.75C140.713 111.143 141.676 108.99 141.223 107.29C140.883 105.477 139.579 104.343 137.313 103.89L133.403 103.21C131.929 102.87 131.193 102.133 131.193 101C131.193 99.8667 131.986 99.3 133.573 99.3H162.813C164.399 99.3 165.193 99.9233 165.193 101.17C165.193 102.417 164.456 103.097 162.983 103.21L161.453 103.38C158.846 103.607 156.239 104.627 153.633 106.44C151.026 108.14 147.909 110.86 144.283 114.6L133.743 125.82C131.363 128.427 130.796 130.977 132.043 133.47L153.463 174.61C154.709 176.877 156.069 178.52 157.543 179.54C159.016 180.56 160.829 181.297 162.983 181.75L164.683 182.09C166.043 182.43 166.723 183.11 166.723 184.13C166.723 185.377 165.929 186 164.343 186H134.763C133.176 186 132.383 185.377 132.383 184.13C132.383 182.997 133.119 182.317 134.593 182.09L137.483 181.75C141.789 181.183 142.696 178.407 140.203 173.42L124.053 141.97C123.486 140.837 122.636 140.213 121.503 140.1C120.483 139.987 119.519 140.383 118.613 141.29L116.743 143.16C115.723 144.18 115.043 145.2 114.703 146.22C114.363 147.24 114.193 148.373 114.193 149.62V174.61C114.193 176.99 114.533 178.69 115.213 179.71C116.006 180.73 117.593 181.353 119.973 181.58L124.563 182.09C125.809 182.317 126.433 182.997 126.433 184.13C126.433 185.377 125.753 186 124.393 186H94.6427Z" fill="white" fill-opacity="0.1"/>
<g filter="url(#filter2_d_1_9)">
<path d="M92.2287 183C90.8687 183 90.1887 182.377 90.1887 181.13C90.1887 179.997 90.812 179.317 92.0587 179.09L94.4387 178.75C96.8187 178.41 98.3487 177.73 99.0287 176.71C99.822 175.69 100.219 173.99 100.219 171.61V74.2C100.219 72.16 99.8787 70.8 99.1987 70.12C98.632 69.3267 97.5553 68.8167 95.9687 68.59L92.3987 68.08C91.152 67.8533 90.5287 67.1733 90.5287 66.04C90.5287 64.9067 91.152 64.2267 92.3987 64C95.572 63.32 98.2353 62.5267 100.389 61.62C102.542 60.7133 104.355 59.8067 105.829 58.9C107.642 57.7667 109.002 57.2 109.909 57.2C111.155 57.2 111.779 58.1067 111.779 59.92V131.15C111.779 132.283 112.232 133.02 113.139 133.36C114.159 133.587 115.122 133.19 116.029 132.17L135.919 110.75C138.299 108.143 139.262 105.99 138.809 104.29C138.469 102.477 137.165 101.343 134.899 100.89L130.989 100.21C129.515 99.87 128.779 99.1333 128.779 98C128.779 96.8667 129.572 96.3 131.159 96.3H160.399C161.985 96.3 162.779 96.9233 162.779 98.17C162.779 99.4167 162.042 100.097 160.569 100.21L159.039 100.38C156.432 100.607 153.825 101.627 151.219 103.44C148.612 105.14 145.495 107.86 141.869 111.6L131.329 122.82C128.949 125.427 128.382 127.977 129.629 130.47L151.049 171.61C152.295 173.877 153.655 175.52 155.129 176.54C156.602 177.56 158.415 178.297 160.569 178.75L162.269 179.09C163.629 179.43 164.309 180.11 164.309 181.13C164.309 182.377 163.515 183 161.929 183H132.349C130.762 183 129.969 182.377 129.969 181.13C129.969 179.997 130.705 179.317 132.179 179.09L135.069 178.75C139.375 178.183 140.282 175.407 137.789 170.42L121.639 138.97C121.072 137.837 120.222 137.213 119.089 137.1C118.069 136.987 117.105 137.383 116.199 138.29L114.329 140.16C113.309 141.18 112.629 142.2 112.289 143.22C111.949 144.24 111.779 145.373 111.779 146.62V171.61C111.779 173.99 112.119 175.69 112.799 176.71C113.592 177.73 115.179 178.353 117.559 178.58L122.149 179.09C123.395 179.317 124.019 179.997 124.019 181.13C124.019 182.377 123.339 183 121.979 183H92.2287Z" fill="white"/>
</g>
<defs>
<filter id="filter0_dn_1_9" x="19" y="23" width="218" height="218" filterUnits="userSpaceOnUse" color-interpolation-filters="sRGB">
<feFlood flood-opacity="0" result="BackgroundImageFix"/>
<feColorMatrix in="SourceAlpha" type="matrix" values="0 0 0 0 0 0 0 0 0 0 0 0 0 0 0 0 0 0 127 0" result="hardAlpha"/>
<feOffset dy="4"/>
<feGaussianBlur stdDeviation="3"/>
<feComposite in2="hardAlpha" operator="out"/>
<feColorMatrix type="matrix" values="0 0 0 0 0 0 0 0 0 0 0 0 0 0 0 0 0 0 0.25 0"/>
<feBlend mode="normal" in2="BackgroundImageFix" result="effect1_dropShadow_1_9"/>
<feBlend mode="normal" in="SourceGraphic" in2="BackgroundImageFix" result="shape"/>
<feTurbulence type="fractalNoise" baseFrequency="2 2" stitchTiles="stitch" numOctaves="3" result="noise" seed="4395" />
<feColorMatrix in="noise" type="luminanceToAlpha" result="alphaNoise" />
<feComponentTransfer in="alphaNoise" result="coloredNoise1">
<feFuncA type="discrete" tableValues="1 1 1 1 1 1 1 1 1 1 1 1 1 1 1 1 1 1 1 1 1 1 1 1 1 1 1 1 1 1 1 1 1 1 1 1 1 1 1 1 1 1 1 1 1 1 1 1 1 1 1 0 0 0 0 0 0 0 0 0 0 0 0 0 0 0 0 0 0 0 0 0 0 0 0 0 0 0 0 0 0 0 0 0 0 0 0 0 0 0 0 0 0 0 0 0 0 0 0 0 "/>
</feComponentTransfer>
<feComposite operator="in" in2="shape" in="coloredNoise1" result="noise1Clipped" />
<feFlood flood-color="rgba(0, 0, 0, 0.25)" result="color1Flood" />
<feComposite operator="in" in2="noise1Clipped" in="color1Flood" result="color1" />
<feMerge result="effect2_noise_1_9">
<feMergeNode in="shape" />
<feMergeNode in="color1" />
</feMerge>
<feBlend mode="normal" in="effect2_noise_1_9" in2="effect1_dropShadow_1_9" result="effect2_noise_1_9"/>
</filter>
<filter id="filter2_d_1_9" x="86.1887" y="57.2" width="82.12" height="133.8" filterUnits="userSpaceOnUse" color-interpolation-filters="sRGB">
<feFlood flood-opacity="0" result="BackgroundImageFix"/>
<feColorMatrix in="SourceAlpha" type="matrix" values="0 0 0 0 0 0 0 0 0 0 0 0 0 0 0 0 0 0 127 0" result="hardAlpha"/>
<feOffset dy="4"/>
<feGaussianBlur stdDeviation="2"/>
<feComposite in2="hardAlpha" operator="out"/>
<feColorMatrix type="matrix" values="0 0 0 0 0 0 0 0 0 0 0 0 0 0 0 0 0 0 0.25 0"/>
<feBlend mode="normal" in2="BackgroundImageFix" result="effect1_dropShadow_1_9"/>
<feBlend mode="normal" in="SourceGraphic" in2="effect1_dropShadow_1_9" result="shape"/>
</filter>
</defs>
</svg>
