<svg width="256" height="256" viewBox="0 0 256 256" fill="none" xmlns="http://www.w3.org/2000/svg">
<circle cx="128" cy="128" r="128" fill="#CEA635"/>
<path d="M88.7828 196C87.1828 196 86.3828 195.267 86.3828 193.8C86.3828 192.467 87.1161 191.667 88.5828 191.4L91.3828 191C94.1828 190.6 95.9828 189.8 96.7828 188.6C97.7161 187.4 98.1828 185.4 98.1828 182.6V68C98.1828 65.6 97.7828 64 96.9828 63.2C96.3161 62.2667 95.0495 61.6667 93.1828 61.4L88.9828 60.8C87.5161 60.5333 86.7828 59.7333 86.7828 58.4C86.7828 57.0667 87.5161 56.2667 88.9828 56C92.7161 55.2 95.8495 54.2667 98.3828 53.2C100.916 52.1333 103.049 51.0667 104.783 50C106.916 48.6667 108.516 48 109.583 48C111.049 48 111.783 49.0667 111.783 51.2V135C111.783 136.333 112.316 137.2 113.383 137.6C114.583 137.867 115.716 137.4 116.783 136.2L140.183 111C142.983 107.933 144.116 105.4 143.583 103.4C143.183 101.267 141.649 99.9333 138.983 99.4L134.383 98.6C132.649 98.2 131.783 97.3333 131.783 96C131.783 94.6667 132.716 94 134.583 94H168.983C170.849 94 171.783 94.7333 171.783 96.2C171.783 97.6667 170.916 98.4667 169.183 98.6L167.383 98.8C164.316 99.0667 161.249 100.267 158.183 102.4C155.116 104.4 151.449 107.6 147.183 112L134.783 125.2C131.983 128.267 131.316 131.267 132.783 134.2L157.983 182.6C159.449 185.267 161.049 187.2 162.783 188.4C164.516 189.6 166.649 190.467 169.183 191L171.183 191.4C172.783 191.8 173.583 192.6 173.583 193.8C173.583 195.267 172.649 196 170.783 196H135.983C134.116 196 133.183 195.267 133.183 193.8C133.183 192.467 134.049 191.667 135.783 191.4L139.183 191C144.249 190.333 145.316 187.067 142.383 181.2L123.383 144.2C122.716 142.867 121.716 142.133 120.383 142C119.183 141.867 118.049 142.333 116.983 143.4L114.783 145.6C113.583 146.8 112.783 148 112.383 149.2C111.983 150.4 111.783 151.733 111.783 153.2V182.6C111.783 185.4 112.183 187.4 112.983 188.6C113.916 189.8 115.783 190.533 118.583 190.8L123.983 191.4C125.449 191.667 126.183 192.467 126.183 193.8C126.183 195.267 125.383 196 123.783 196H88.7828Z" fill="white" fill-opacity="0.1"/>
<g filter="url(#filter1_d_1_7)">
<path d="M85.7828 193C84.1828 193 83.3828 192.267 83.3828 190.8C83.3828 189.467 84.1161 188.667 85.5828 188.4L88.3828 188C91.1828 187.6 92.9828 186.8 93.7828 185.6C94.7161 184.4 95.1828 182.4 95.1828 179.6V65C95.1828 62.6 94.7828 61 93.9828 60.2C93.3161 59.2667 92.0495 58.6667 90.1828 58.4L85.9828 57.8C84.5161 57.5333 83.7828 56.7333 83.7828 55.4C83.7828 54.0667 84.5161 53.2667 85.9828 53C89.7161 52.2 92.8495 51.2667 95.3828 50.2C97.9161 49.1333 100.049 48.0667 101.783 47C103.916 45.6667 105.516 45 106.583 45C108.049 45 108.783 46.0667 108.783 48.2V132C108.783 133.333 109.316 134.2 110.383 134.6C111.583 134.867 112.716 134.4 113.783 133.2L137.183 108C139.983 104.933 141.116 102.4 140.583 100.4C140.183 98.2667 138.649 96.9333 135.983 96.4L131.383 95.6C129.649 95.2 128.783 94.3333 128.783 93C128.783 91.6667 129.716 91 131.583 91H165.983C167.849 91 168.783 91.7333 168.783 93.2C168.783 94.6667 167.916 95.4667 166.183 95.6L164.383 95.8C161.316 96.0667 158.249 97.2667 155.183 99.4C152.116 101.4 148.449 104.6 144.183 109L131.783 122.2C128.983 125.267 128.316 128.267 129.783 131.2L154.983 179.6C156.449 182.267 158.049 184.2 159.783 185.4C161.516 186.6 163.649 187.467 166.183 188L168.183 188.4C169.783 188.8 170.583 189.6 170.583 190.8C170.583 192.267 169.649 193 167.783 193H132.983C131.116 193 130.183 192.267 130.183 190.8C130.183 189.467 131.049 188.667 132.783 188.4L136.183 188C141.249 187.333 142.316 184.067 139.383 178.2L120.383 141.2C119.716 139.867 118.716 139.133 117.383 139C116.183 138.867 115.049 139.333 113.983 140.4L111.783 142.6C110.583 143.8 109.783 145 109.383 146.2C108.983 147.4 108.783 148.733 108.783 150.2V179.6C108.783 182.4 109.183 184.4 109.983 185.6C110.916 186.8 112.783 187.533 115.583 187.8L120.983 188.4C122.449 188.667 123.183 189.467 123.183 190.8C123.183 192.267 122.383 193 120.783 193H85.7828Z" fill="white"/>
</g>
<defs>
<filter id="filter1_d_1_7" x="79.3828" y="45" width="95.2" height="156" filterUnits="userSpaceOnUse" color-interpolation-filters="sRGB">
<feFlood flood-opacity="0" result="BackgroundImageFix"/>
<feColorMatrix in="SourceAlpha" type="matrix" values="0 0 0 0 0 0 0 0 0 0 0 0 0 0 0 0 0 0 127 0" result="hardAlpha"/>
<feOffset dy="4"/>
<feGaussianBlur stdDeviation="2"/>
<feComposite in2="hardAlpha" operator="out"/>
<feColorMatrix type="matrix" values="0 0 0 0 0 0 0 0 0 0 0 0 0 0 0 0 0 0 0.25 0"/>
<feBlend mode="normal" in2="BackgroundImageFix" result="effect1_dropShadow_1_7"/>
<feBlend mode="normal" in="SourceGraphic" in2="effect1_dropShadow_1_7" result="shape"/>
</filter>
</defs>
</svg>
