<svg width="256" height="256" viewBox="0 0 256 256" fill="none" xmlns="http://www.w3.org/2000/svg">
<circle cx="128" cy="128" r="128" fill="#CEA635"/>
<path d="M88.7828 196C87.1828 196 86.3828 195.267 86.3828 193.8C86.3828 192.467 87.1161 191.667 88.5828 191.4L91.3828 191C94.1828 190.6 95.9828 189.8 96.7828 188.6C97.7161 187.4 98.1828 185.4 98.1828 182.6V68C98.1828 65.6 97.7828 64 96.9828 63.2C96.3161 62.2667 95.0495 61.6667 93.1828 61.4L88.9828 60.8C87.5161 60.5333 86.7828 59.7333 86.7828 58.4C86.7828 57.0667 87.5161 56.2667 88.9828 56C92.7161 55.2 95.8495 54.2667 98.3828 53.2C100.916 52.1333 103.049 51.0667 104.783 50C106.916 48.6667 108.516 48 109.583 48C111.049 48 111.783 49.0667 111.783 51.2V135C111.783 136.333 112.316 137.2 113.383 137.6C114.583 137.867 115.716 137.4 116.783 136.2L140.183 111C142.983 107.933 144.116 105.4 143.583 103.4C143.183 101.267 141.649 99.9333 138.983 99.4L134.383 98.6C132.649 98.2 131.783 97.3333 131.783 96C131.783 94.6667 132.716 94 134.583 94H168.983C170.849 94 171.783 94.7333 171.783 96.2C171.783 97.6667 170.916 98.4667 169.183 98.6L167.383 98.8C164.316 99.0667 161.249 100.267 158.183 102.4C155.116 104.4 151.449 107.6 147.183 112L134.783 125.2C131.983 128.267 131.316 131.267 132.783 134.2L157.983 182.6C159.449 185.267 161.049 187.2 162.783 188.4C164.516 189.6 166.649 190.467 169.183 191L171.183 191.4C172.783 191.8 173.583 192.6 173.583 193.8C173.583 195.267 172.649 196 170.783 196H135.983C134.116 196 133.183 195.267 133.183 193.8C133.183 192.467 134.049 191.667 135.783 191.4L139.183 191C144.249 190.333 145.316 187.067 142.383 181.2L123.383 144.2C122.716 142.867 121.716 142.133 120.383 142C119.183 141.867 118.049 142.333 116.983 143.4L114.783 145.6C113.583 146.8 112.783 148 112.383 149.2C111.983 150.4 111.783 151.733 111.783 153.2V182.6C111.783 185.4 112.183 187.4 112.983 188.6C113.916 189.8 115.783 190.533 118.583 190.8L123.983 191.4C125.449 191.667 126.183 192.467 126.183 193.8C126.183 195.267 125.383 196 123.783 196H88.7828Z" fill="white"/>
</svg>
